<svg width="25" height="25" viewBox="0 0 25 25" fill="none" xmlns="http://www.w3.org/2000/svg">
<g clip-path="url(#clip0_2_568)">
<path d="M10.4608 2.00733C11.2607 1.03914 12.7446 1.03914 13.5445 2.00733L14.7445 3.4598C15.1677 3.97201 15.8176 4.24062 16.4789 4.17665L18.3571 3.99496C19.6102 3.87373 20.6624 4.92667 20.5402 6.17975L20.3597 8.0313C20.2949 8.69581 20.566 9.34884 21.0823 9.77211L22.5232 10.9533C23.4993 11.7534 23.4993 13.2466 22.5232 14.0467L21.0823 15.2279C20.566 15.6512 20.2949 16.3042 20.3597 16.9687L20.5402 18.8203C20.6624 20.0733 19.6102 21.1263 18.3571 21.005L16.4789 20.8234C15.8176 20.7594 15.1677 21.028 14.7445 21.5402L13.5445 22.9927C12.7446 23.9609 11.2607 23.9609 10.4608 22.9927L9.26079 21.5402C8.83761 21.028 8.18769 20.7594 7.52637 20.8234L5.64824 21.005C4.39507 21.1263 3.34293 20.0733 3.4651 18.8203L3.64562 16.9687C3.71041 16.3042 3.43933 15.6512 2.92298 15.2279L1.48208 14.0467C0.505972 13.2466 0.505972 11.7534 1.48208 10.9533L2.92298 9.77211C3.43933 9.34884 3.71041 8.69581 3.64562 8.0313L3.4651 6.17975C3.34293 4.92667 4.39507 3.87373 5.64824 3.99496L7.52637 4.17665C8.18769 4.24062 8.83761 3.97201 9.26079 3.4598L10.4608 2.00733Z" stroke="#DF0011" stroke-width="1.5"/>
<path d="M8.12549 13.2725L10.4136 15.5516C10.8437 15.98 11.5531 15.9296 11.9182 15.4446L15.8801 10.1827" stroke="#0F77CC" stroke-opacity="0.37" stroke-width="1.5" stroke-linecap="round"/>
</g>
<defs>
<clipPath id="clip0_2_568">
<rect width="25" height="25" fill="white"/>
</clipPath>
</defs>
</svg>
