<svg width="38" height="38" viewBox="0 0 38 38" fill="none" xmlns="http://www.w3.org/2000/svg">
<path d="M20.9317 27.7083C20.5543 27.7083 20.1893 27.5736 19.9025 27.3283C19.5856 27.0531 19.391 26.6634 19.3613 26.2448C19.3316 25.8262 19.4693 25.4129 19.7442 25.0958L32.0467 10.8458C32.1818 10.6878 32.3468 10.5579 32.5321 10.4637C32.7174 10.3694 32.9195 10.3125 33.1268 10.2964C33.3341 10.2802 33.5426 10.305 33.7403 10.3694C33.938 10.4338 34.1211 10.5365 34.2792 10.6716C34.4372 10.8068 34.567 10.9717 34.6613 11.1571C34.7556 11.3424 34.8124 11.5445 34.8286 11.7518C34.8448 11.9591 34.82 12.1676 34.7556 12.3653C34.6912 12.563 34.5885 12.7461 34.4533 12.9041L22.135 27.1541C21.9863 27.3279 21.8018 27.4675 21.5941 27.5631C21.3863 27.6588 21.1604 27.7083 20.9317 27.7083Z" fill="#2481BA"/>
<path d="M11.0833 27.7083C10.8558 27.7103 10.6306 27.6632 10.4229 27.5703C10.2153 27.4775 10.0301 27.3409 9.87995 27.17L3.54662 19.855C3.27156 19.5358 3.13456 19.1205 3.16574 18.7003C3.19691 18.2802 3.39372 17.8896 3.71287 17.6146C4.03201 17.3395 4.44735 17.2025 4.86751 17.2337C5.28767 17.2649 5.67823 17.4617 5.95328 17.7808L11.0833 23.75L22.1666 10.8933C22.2949 10.7152 22.4588 10.5658 22.6479 10.4544C22.837 10.343 23.0472 10.2722 23.2651 10.2464C23.4831 10.2206 23.704 10.2404 23.9139 10.3045C24.1238 10.3686 24.3181 10.4756 24.4844 10.6188C24.6507 10.762 24.7854 10.9382 24.88 11.1363C24.9746 11.3343 25.027 11.5498 25.0339 11.7692C25.0408 11.9885 25.002 12.2069 24.9199 12.4105C24.8379 12.6141 24.7145 12.7983 24.5575 12.9517L12.2549 27.2017C12.1055 27.3628 11.9242 27.4911 11.7224 27.5783C11.5207 27.6655 11.3031 27.7098 11.0833 27.7083Z" fill="black"/>
</svg>
