<svg width="30" height="30" viewBox="0 0 30 30" fill="none" xmlns="http://www.w3.org/2000/svg">
<path d="M18.2267 7.64736C18.1703 7.31683 17.8839 7.07501 17.5483 7.07501H2.07598C1.63008 7.07501 1.26902 7.43648 1.26902 7.88155C1.26902 8.32745 1.63008 8.68851 2.07598 8.68851H5.84139C6.28729 8.68851 6.64834 9.05003 6.64834 9.49552C6.64834 9.94101 6.28729 10.3025 5.84139 10.3025H0.806953C0.361465 10.3025 0 10.6639 0 11.1094C0 11.5549 0.361465 11.9159 0.806953 11.9159H7.6691C8.06285 11.9159 8.3823 12.2358 8.3823 12.6296C8.3823 13.0233 8.06285 13.3428 7.6691 13.3428H4.02334C3.57744 13.3428 3.21639 13.7043 3.21639 14.1498C3.21639 14.5952 3.57744 14.9568 4.02334 14.9568H6.71027C7.10438 14.9568 7.42389 15.2762 7.42389 15.67C7.42389 16.0636 7.10438 16.3832 6.71027 16.3832H3.00088C2.55498 16.3832 2.19393 16.7446 2.19393 17.1901C2.19393 17.6356 2.55498 17.9971 3.00088 17.9971H8.09936L8.42092 19.8159H10.2678C10.1592 20.0798 10.0972 20.3679 10.0972 20.6713C10.0972 21.9161 11.1061 22.925 12.351 22.925C13.5953 22.925 14.6043 21.9161 14.6043 20.6713C14.6043 20.3679 14.5423 20.0798 14.4337 19.8159H20.2954L18.2267 7.64736ZM13.3208 20.6712C13.3208 21.2071 12.8868 21.6411 12.3509 21.6411C11.8147 21.6411 11.3806 21.2071 11.3806 20.6712C11.3806 20.2983 11.5931 19.9784 11.9016 19.8159H12.7998C13.1082 19.9784 13.3208 20.2983 13.3208 20.6712Z" fill="#2481BA"/>
<path d="M29.9765 18.4026L29.0508 13.8358L25.6706 8.63507H19.5161L21.4224 19.8159H23.6736C23.5654 20.0798 23.5034 20.3679 23.5034 20.6712C23.5034 21.916 24.5123 22.925 25.7567 22.925C27.0016 22.925 28.0104 21.916 28.0104 20.6712C28.0104 20.3679 27.9485 20.0798 27.8399 19.8159H28.8209C29.1747 19.8159 29.5099 19.6572 29.7339 19.3831C29.9575 19.1095 30.0469 18.7493 29.9765 18.4026ZM22.9998 10.7157H24.5416L26.5433 13.7947H23.525L22.9998 10.7157ZM26.727 20.6712C26.727 21.2071 26.293 21.6411 25.7567 21.6411C25.2213 21.6411 24.7869 21.2071 24.7869 20.6712C24.7869 20.2983 24.9998 19.9784 25.3079 19.8159H26.2061C26.5145 19.9784 26.727 20.2983 26.727 20.6712Z" fill="#2481BA"/>
</svg>
