<svg width="24" height="30" viewBox="0 0 24 30" fill="none" xmlns="http://www.w3.org/2000/svg">
<path d="M4.5182 18.4838C4.5182 18.3296 4.5216 18.1749 4.53777 18.0233H2.70736C2.69628 18.1749 2.69324 18.3296 2.69324 18.4838C2.69324 18.6411 2.69628 18.7927 2.70736 18.9444H4.53777C4.5216 18.7928 4.5182 18.6385 4.5182 18.4838Z" fill="#2481BA"/>
<path d="M7.75594 12.5817C7.92891 12.4722 8.10574 12.3687 8.2851 12.2775L8.355 12.2435L7.44281 10.6589C7.21441 10.7743 6.99199 10.9022 6.77637 11.0424L7.68902 12.6269L7.75594 12.5817Z" fill="#2481BA"/>
<path d="M3.69153 14.4101L5.27655 15.3223L5.65998 14.6568L4.07456 13.7441C3.93481 13.9602 3.80702 14.1817 3.69153 14.4101Z" fill="#2481BA"/>
<path d="M17.7227 21.7143C17.6277 21.8941 17.5275 22.0705 17.4151 22.2409L17.3695 22.3078L18.9549 23.2205C19.0947 23.0045 19.2225 22.7859 19.341 22.5575L17.7594 21.6418L17.7227 21.7143Z" fill="#2481BA"/>
<path d="M5.30977 21.7117L5.27315 21.6418L3.69153 22.5541C3.80403 22.7825 3.93481 23.0045 4.07461 23.2205L5.66004 22.3078L5.61405 22.2409C5.50448 22.0705 5.40141 21.8941 5.30977 21.7117Z" fill="#2481BA"/>
<path d="M7.75594 24.3828L7.68902 24.3368L6.77637 25.9222C6.99199 26.0624 7.21436 26.1927 7.44281 26.3086L8.355 24.7236L8.2851 24.69C8.10568 24.5989 7.92885 24.4953 7.75594 24.3828Z" fill="#2481BA"/>
<path d="M16.2531 11.0424C16.0376 10.9022 15.8177 10.7744 15.5906 10.6589L14.6746 12.2409L15.3405 12.6269L16.2531 11.0424Z" fill="#2481BA"/>
<path d="M11.0554 25.4621V27.2904C11.2075 27.304 11.3617 27.3066 11.5156 27.3066C11.6707 27.3066 11.8249 27.304 11.9766 27.2904V25.4621V25.4429H11.0554V25.4621Z" fill="#2481BA"/>
<path d="M11.9766 11.5059V9.67753C11.8249 9.66394 11.6707 9.66095 11.5156 9.66095C11.3617 9.66095 11.2075 9.66394 11.0554 9.67753V11.5059V11.5251H11.9766V11.5059Z" fill="#2481BA"/>
<path d="M14.6746 24.7266L15.5906 26.3086C15.8177 26.1893 16.0376 26.0624 16.2531 25.9222L15.3405 24.3368L14.6746 24.7266Z" fill="#2481BA"/>
<path d="M19.341 14.4101C19.2251 14.1817 19.0947 13.9602 18.9549 13.7441L17.3695 14.6568L17.7564 15.3223L19.341 14.4101Z" fill="#2481BA"/>
<path d="M20.3252 18.0233H18.4943H18.4751V18.9444H18.4943H20.3252C20.3362 18.7928 20.3388 18.6385 20.3388 18.4838C20.3388 18.3296 20.3363 18.1749 20.3252 18.0233Z" fill="#2481BA"/>
<path d="M22.5178 8.68797C22.5178 8.68797 22.468 9.6407 21.5549 10.0463C20.6418 10.4523 19.7287 9.53927 21.0479 8.52431C22.3666 7.50941 22.2652 4.16213 21.0479 3.14722C21.3521 3.95886 20.0832 5.07519 19.2724 4.36498C18.4603 3.04586 19.3227 0.864352 20.5404 0.255856C19.6273 -0.455237 16.9383 0.356872 16.9383 2.18347C16.9383 3.63642 16.989 4.21293 15.7713 4.16218C14.4386 4.10593 15.5689 1.82775 15.7713 1.52347C11.8143 2.08164 14.0465 5.58226 12.5245 5.68328C11.0026 5.78511 11.9161 4.16213 12.0175 3.95851C9.37119 4.39861 10.0163 6.05306 8.17131 7.46347C3.44268 8.89632 0.000410156 13.2871 0 18.4844C0.000410156 24.8448 5.15555 29.9996 11.5156 30C17.8761 29.9996 23.0313 24.8448 23.0317 18.4843C23.0317 17.0148 22.7535 15.6113 22.252 14.3189C22.3772 12.7718 22.9345 11.8238 23.1212 11.056C23.5392 9.33812 22.5178 8.68797 22.5178 8.68797ZM11.5156 28.5142C8.74354 28.5138 6.24076 27.3928 4.42354 25.5764C2.60719 23.7588 1.48611 21.256 1.48576 18.4844C1.48611 15.7119 2.60719 13.2091 4.42354 11.3919C6.24076 9.57549 8.74354 8.45447 11.5156 8.45447C14.2877 8.45447 16.7904 9.57549 18.6081 11.3919C20.4245 13.2091 21.5455 15.7119 21.5459 18.4844C21.5455 21.256 20.4245 23.7588 18.6081 25.5764C16.7904 27.3928 14.2877 28.5138 11.5156 28.5142Z" fill="#2481BA"/>
<path d="M15.4398 13.69L11.5425 17.8532L8.53355 15.7582C8.25236 15.5507 7.83007 15.6466 7.59189 15.9721C7.3537 16.2968 7.38904 16.728 7.67157 16.935L11.0734 19.5597L11.1203 19.5869L11.142 19.5984C11.4365 19.7625 11.8255 19.6755 12.0849 19.3897L12.1075 19.3675L16.2771 14.4344C16.5149 14.1685 16.5191 13.7859 16.2877 13.5801C16.0563 13.3747 15.6767 13.4242 15.4398 13.69Z" fill="#2481BA"/>
</svg>
