<svg width="30" height="30" viewBox="0 0 30 30" fill="none" xmlns="http://www.w3.org/2000/svg">
<g clip-path="url(#clip0_2_560)">
<path fill-rule="evenodd" clip-rule="evenodd" d="M19.375 17.5H18.375L18 17.125C19.2936 15.6829 20.0062 13.8122 20 11.875C20 10.268 19.5235 8.69715 18.6307 7.361C17.7379 6.02485 16.469 4.98344 14.9843 4.36848C13.4997 3.75352 11.866 3.59262 10.2899 3.90612C8.7138 4.21963 7.26606 4.99346 6.12976 6.12976C4.99346 7.26606 4.21963 8.7138 3.90612 10.2899C3.59262 11.866 3.75352 13.4997 4.36848 14.9843C4.98344 16.469 6.02485 17.7379 7.361 18.6307C8.69715 19.5235 10.268 20 11.875 20C13.8122 20.0062 15.6829 19.2936 17.125 18L17.5 18.375V19.375L23.75 25.625L25.625 23.75L19.375 17.5ZM11.875 6.25C13.1513 6.24474 14.3911 6.67561 15.3891 7.47126C16.3871 8.26691 17.0833 9.37959 17.3625 10.625H14.325L12.9875 12.625L10.275 7.5L8.6375 10.625H6.3875C6.66669 9.37959 7.36293 8.26691 8.3609 7.47126C9.35887 6.67561 10.5987 6.24474 11.875 6.25ZM11.875 17.5C10.4838 17.5142 9.13719 17.0101 8.09736 16.0858C7.05754 15.1615 6.39899 13.8832 6.25 12.5H9.775L10.2875 11.525L12.7875 16.2625L15.2875 12.5125H17.5C17.3508 13.8946 16.6918 15.1714 15.6517 16.0937C14.6116 17.0159 13.265 17.5174 11.875 17.5Z" fill="#2481BA"/>
</g>
<defs>
<clipPath id="clip0_2_560">
<rect width="30" height="30" fill="white"/>
</clipPath>
</defs>
</svg>
