<svg width="30" height="30" viewBox="0 0 30 30" fill="none" xmlns="http://www.w3.org/2000/svg">
<path d="M18.125 20.625H20.144C21.2281 20.625 22.2432 20.0931 22.8603 19.2017L27.0393 13.1654C27.3235 12.755 27.3612 12.2225 27.1381 11.7762C26.7097 10.9193 25.5555 10.7577 24.9081 11.4639L21.5908 15.0826C20.2573 16.5375 18.1626 17.015 16.3303 16.2821L11.8005 14.4702C10.6734 14.0194 9.39656 14.1523 8.38649 14.8256L3.59043 18.023C2.96748 18.4384 2.75127 19.2525 3.08609 19.9221C3.45276 20.6555 4.3445 20.9528 5.07783 20.5861L9.05962 18.5952C9.83523 18.2074 10.6822 18.9764 10.3709 19.7857L8.12501 25.625M8.75001 5H5.00001M7.50001 8.75H5.00001M22.5 8.125C22.5 10.8864 20.2615 13.125 17.5 13.125C14.7386 13.125 12.5 10.8864 12.5 8.125C12.5 5.36357 14.7386 3.125 17.5 3.125C20.2615 3.125 22.5 5.36357 22.5 8.125Z" stroke="#2481BA" stroke-width="1.4" stroke-linecap="round" stroke-linejoin="round"/>
</svg>
