<svg width="21" height="21" viewBox="0 0 21 21" fill="none" xmlns="http://www.w3.org/2000/svg">
<path d="M17.57 3.08412C13.6642 -0.820532 7.33251 -0.819594 3.42787 3.08626C-0.476782 6.99212 -0.475844 13.3238 3.43001 17.2284C7.33587 21.1331 13.6675 21.1321 17.5722 17.2263C19.4474 15.3504 20.5006 12.8065 20.5 10.1541C20.4995 7.50216 19.4455 4.95904 17.57 3.08412ZM15.6447 14.0861L15.6433 14.0875V14.0842L15.1367 14.5875C14.4814 15.251 13.527 15.524 12.62 15.3075C11.7061 15.0629 10.8374 14.6735 10.0467 14.1542C9.31205 13.6847 8.63126 13.1358 8.01666 12.5175C7.45115 11.9561 6.9431 11.3397 6.49998 10.6775C6.01529 9.9649 5.63166 9.18865 5.35998 8.3708C5.04853 7.41001 5.30662 6.35576 6.02666 5.64748L6.61998 5.05416C6.78494 4.88845 7.05298 4.88787 7.21865 5.05283L7.21998 5.05416L9.0933 6.92748C9.259 7.09244 9.25959 7.36048 9.09462 7.52615L9.0933 7.52748L7.9933 8.62748C7.67767 8.93966 7.63798 9.43576 7.89998 9.79416C8.29783 10.3402 8.7381 10.854 9.21666 11.3308C9.75021 11.8667 10.3302 12.3542 10.95 12.7875C11.3081 13.0373 11.7935 12.9952 12.1033 12.6875L13.1666 11.6075C13.3316 11.4418 13.5996 11.4412 13.7653 11.6062L13.7666 11.6075L15.6433 13.4875C15.809 13.6524 15.8096 13.9204 15.6447 14.0861Z" fill="#0F77CC" fill-opacity="0.37"/>
</svg>
